<?xml version="1.0" encoding="utf-8"?>
<!-- Generator: Adobe Illustrator 24.0.1, SVG Export Plug-In . SVG Version: 6.00 Build 0)  -->
<svg version="1.1" id="Layer_1" xmlns="http://www.w3.org/2000/svg" xmlns:xlink="http://www.w3.org/1999/xlink" x="0px" y="0px"
	 viewBox="0 0 1000 1000" style="enable-background:new 0 0 1000 1000;" xml:space="preserve">
<style type="text/css">
	.st0{fill-rule:evenodd;clip-rule:evenodd;fill:#FFFFFF;}
</style>
<path class="st0" d="M482.57,577.86c130.31,0,263.07-127.73,263.07-262.93c0-135.15-126.37-272.9-256.71-272.9
	c-130.29,0-259.85,140.98-259.85,276.15C229.08,453.38,352.28,577.86,482.57,577.86z M995.9,955.13c0-132.56,8.5-119.87,0-202.77
	c-32.55-101.43-97.73-135.2-162.89-135.2c-139.34,0-185.5,0-293.15,0c-130.9,0-194.44-0.42-324.78-0.42
	c-65.1,0-107.54-4.44-155.89,41.08C-6.72,735.34-0.14,742.11-0.14,958.44"/>
</svg>
